<?xml version="1.0" encoding="UTF-8" standalone="no"?>
<!DOCTYPE svg PUBLIC "-//W3C//DTD SVG 1.1//EN" "http://www.w3.org/Graphics/SVG/1.1/DTD/svg11.dtd">
<svg version="1.1" xmlns="http://www.w3.org/2000/svg" xmlns:xl="http://www.w3.org/1999/xlink" xmlns:dc="http://purl.org/dc/elements/1.1/" viewBox="0 0 1024 1024" width="1024" height="1024">
  <defs/>
  <g id="Canvas_1" stroke-opacity="1" fill="none" fill-opacity="1" stroke="none" stroke-dasharray="none" transform="translate(-152.08284 -196.00491) scale(1.25644172)">
    <title>Canvas 1</title>
    <g id="Canvas_1_Layer_1">
      <title>Layer 1</title>
      <g id="Graphic_2">
        <path d="M 494.62225 210.50774 C 499.27917 212.8797 502.92054 215.9196 506.60614 219.5176 C 507.08685 219.96528 507.56756 220.41296 508.06284 220.8742 C 518.455 231.2758 519.7829 244.60182 519.7116 258.28593 C 519.7126 259.70195 519.7146 261.11796 519.7175 262.53398 C 519.7225 266.40752 519.7135 270.28093 519.7021 274.15446 C 519.6923 278.33814 519.69566 282.5218 519.6974 286.7055 C 519.69856 293.9482 519.6915 301.1909 519.6787 308.4336 C 519.6603 318.90523 519.6544 329.37686 519.6516 339.8485 C 519.6466 356.8392 519.6316 373.82986 519.6101 390.82052 C 519.5893 407.32272 519.5733 423.8249 519.5637 440.32713 C 519.5634 440.83615 519.5631 441.34517 519.5628 441.8696 C 519.5598 446.98156 519.5569 452.0935 519.5541 457.20546 C 519.54834 467.6183 519.54195 478.0312 519.5352 488.44403 C 519.53455 489.4003 519.5339 490.35655 519.5333 491.3418 C 519.5125 522.80675 519.4769 554.2717 519.4393 585.73665 C 517.05766 585.2939 514.6774 584.8446 512.2973 584.3943 C 511.63176 584.2706 510.9662 584.147 510.2805 584.0196 C 502.072 582.4588 494.19813 580.0827 486.4777 576.9657 C 484.60425 576.22844 482.7103 575.59024 480.7983 574.9521 C 460.0215 567.6885 442.1576 555.6934 432.30543 536.1767 C 430.06093 531.13125 428.9833 525.61495 428.0975 520.2104 C 427.9696 519.439 427.8417 518.66765 427.7099 517.8729 C 427.1023 513.09846 427.22786 508.28887 427.22644 503.4865 C 427.2234 502.3731 427.22005 501.2597 427.2164 500.14635 C 427.2074 497.0954 427.20313 494.0444 427.19967 490.99344 C 427.19516 487.69934 427.1864 484.40525 427.1783 481.11115 C 427.15984 473.16057 427.14876 465.21 427.139 457.2594 C 427.1362 455.0121 427.1332 452.7648 427.13014 450.51755 C 427.1111 436.5479 427.09445 422.5782 427.08505 408.60853 C 427.08284 405.37574 427.0806 402.14295 427.07833 398.91017 C 427.07777 398.10672 427.0772 397.3033 427.0766 396.4755 C 427.0671 383.46634 427.042 370.45726 427.01054 357.44815 C 426.97847 344.07775 426.9607 330.7074 426.9568 317.33697 C 426.9542 309.8357 426.9454 302.33456 426.92047 294.83333 C 426.89927 288.44387 426.89106 282.05455 426.8995 275.66507 C 426.9034 272.40908 426.9013 269.1534 426.8825 265.89745 C 426.8654 262.90825 426.8662 259.91954 426.8804 256.93034 C 426.8825 255.8573 426.8784 254.78422 426.86696 253.71123 C 426.7548 242.4908 429.267 232.2084 436.4013 223.15795 C 436.73994 222.69995 437.0786 222.24195 437.4275 221.77007 C 450.80224 205.07652 475.5921 202.186 494.62225 210.50774 Z" fill="#2aa9a9"/>
      </g>
      <g id="Graphic_3">
        <path d="M 726.6568 255.64806 C 727.64495 255.6354 727.64495 255.6354 728.6531 255.62246 C 739.8283 255.67037 749.8449 260.69794 757.8225 268.0679 C 767.1831 277.50983 771.1773 287.57816 771.1105 300.56087 C 771.1146 301.5157 771.1187 302.47053 771.1228 303.4543 C 771.1337 306.08697 771.1306 308.71947 771.125 311.35216 C 771.1214 314.19858 771.1309 317.04497 771.1386 319.89138 C 771.1515 325.46198 771.1522 331.0325 771.1482 336.60313 C 771.1452 341.1349 771.1463 345.66664 771.1503 350.1984 C 771.1509 350.8445 771.1514 351.4906 771.152 352.15626 C 771.1532 353.46903 771.1543 354.7818 771.1555 356.09457 C 771.1659 368.3974 771.1618 380.70016 771.1531 393.00297 C 771.1456 404.23708 771.1554 415.4711 771.1734 426.7052 C 771.1919 438.25906 771.1991 449.8129 771.1941 461.36676 C 771.19145 467.8458 771.1931 474.3247 771.20635 480.8037 C 771.2175 486.32183 771.2179 491.8398 771.2048 497.35793 C 771.1984 500.1686 771.1967 502.979 771.2083 505.78966 C 771.2814 524.80945 770.0733 540.0751 755.7201 554.42966 C 739.8474 568.21615 703.7042 583.55244 682.4957 583.55244 C 682.4265 546.9407 682.3733 510.32893 682.3415 473.7171 C 682.3377 469.39127 682.3338 465.0654 682.3298 460.73957 C 682.329 459.8784 682.3282 459.0172 682.3274 458.12996 C 682.3143 444.2 682.2905 430.2701 682.2627 416.3402 C 682.2344 402.0387 682.2177 387.73716 682.21155 373.4356 C 682.2074 364.61623 682.1944 355.79696 682.1698 346.97762 C 682.1538 340.92357 682.149 334.86957 682.1529 328.8155 C 682.1549 325.32663 682.152 321.83793 682.1357 318.34908 C 682.1209 315.14686 682.1204 311.94492 682.1306 308.7427 C 682.1319 307.59206 682.12814 306.4414 682.1186 305.29082 C 682.0047 290.7423 685.2382 278.55492 695.895 267.70387 C 704.3603 259.78028 714.8651 255.49687 726.6568 255.64806 Z" fill="#2aa9a9"/>
      </g>
      <g id="Graphic_4">
        <path d="M 297.84795 537.42016 C 299.7536 537.7269 301.65894 538.0364 303.56418 538.3474 C 304.09697 538.43286 304.62976 538.5183 305.1787 538.6064 C 327.87967 542.3296 367.81853 553.1759 384.66037 575.58006 C 384.7392 578.1056 384.76857 580.6038 384.7664 583.1301 C 384.76864 583.9303 384.7709 584.7305 384.7732 585.5549 C 384.77978 588.2576 384.7809 590.9602 384.782 593.6629 C 384.7855 595.59254 384.7893 597.52216 384.79337 599.4518 C 384.8033 604.712 384.80815 609.9722 384.8115 615.23246 C 384.8137 618.52 384.8168 621.8075 384.8202 625.095 C 384.8305 635.3833 384.8378 645.6716 384.8407 655.9599 C 384.8441 667.8296 384.8573 679.6992 384.8792 691.5689 C 384.89556 700.7438 384.90315 709.9186 384.90416 719.0935 C 384.90495 724.5719 384.90937 730.0502 384.9229 735.5285 C 384.9354 740.6908 384.93694 745.8528 384.93034 751.0151 C 384.92976 752.9031 384.933 754.791 384.9405 756.67895 C 385.01595 776.8857 382.15663 792.2939 371.33773 807.2657 C 362.54605 818.0197 352.48767 822.2377 340.72043 821.8228 C 326.91974 820.8019 317.04345 815.034 307.66742 801.3386 C 300.9382 790.5812 297.47248 777.1404 297.5756 763.2424 C 297.57368 762.2701 297.57174 761.2979 297.56975 760.2961 C 297.56604 757.0659 297.57843 753.83615 297.59085 750.60595 C 297.5915 748.2795 297.59113 745.953 297.58985 743.62656 C 297.5892 737.3302 297.6025 731.0341 297.61832 724.7378 C 297.6325 718.1506 297.6338 711.5633 297.6365 704.97606 C 297.64236 693.92605 297.65687 682.8761 297.6771 671.8261 C 297.6979 660.4487 297.71393 649.0713 297.72355 637.69385 C 297.72414 636.9916 297.72474 636.2893 297.72535 635.5658 C 297.7283 632.0425 297.73117 628.5192 297.73398 624.99585 C 297.75743 595.8039 297.79746 566.61204 297.84795 537.42016 Z" fill="#f26d6d"/>
      </g>
      <g id="Graphic_5">
        <path d="M 646.6074 659.9335 C 646.64274 686.4356 646.66935 712.9377 646.68566 739.4398 C 646.6934 751.7459 646.704 764.0519 646.7213 776.3579 C 646.7364 787.0868 646.7461 797.8156 646.7495 808.5445 C 646.75145 814.2226 646.75605 819.9007 646.7671 825.5789 C 646.77736 830.9299 646.7805 836.2807 646.7782 841.6317 C 646.7786 843.5893 646.7816 845.5469 646.7874 847.5045 C 646.8469 868.5755 644.8925 887.5482 633.5856 903.705 C 628.2072 910.3795 621.8082 914.8424 614.902 918.015 C 613.9401 918.5509 613.9401 918.5509 612.9588 919.0976 C 601.69634 923.1293 589.5957 920.522 579.4723 913.4568 C 571.78876 907.4744 566.2886 899.8046 562.0597 889.4578 C 561.6362 888.4348 561.6362 888.4348 561.20416 887.391 C 556.66074 875.5634 557.321 862.4848 557.35894 849.5692 C 557.35936 847.5295 557.3591 845.4898 557.3583 843.4501 C 557.35784 837.9402 557.3667 832.4304 557.37725 826.9205 C 557.3867 821.1522 557.3876 815.3838 557.3894 809.6155 C 557.39406 798.7045 557.40643 787.7935 557.4216 776.88255 C 557.4385 764.4556 557.4468 752.0287 557.45436 739.6017 C 557.4701 714.04985 557.49666 688.498 557.53034 662.94615 C 558.2339 663.01695 558.93747 663.08775 559.66235 663.1607 C 561.06444 663.2985 561.06444 663.2985 562.49486 663.4391 C 563.4164 663.53065 564.33794 663.62216 565.2874 663.71644 C 569.69635 664.0833 574.0976 664.1135 578.51394 664.119 C 579.9548 664.12405 579.9548 664.12405 581.4248 664.1292 C 583.4472 664.1342 585.4695 664.13704 587.4919 664.13644 C 590.5178 664.1363 593.54354 664.15685 596.5694 664.1759 C 611.67496 664.2196 626.9286 663.8929 641.8363 660.30226 C 643.5879 659.9335 643.5879 659.9335 646.6074 659.9335 Z" fill="#f26d6d"/>
      </g>
      <g id="Graphic_6">
        <path d="M 625.124 423.43524 C 626.6604 424.55775 628.1719 425.7122 629.6533 426.90006 C 630.33546 427.44113 631.0176 427.9822 631.7204 428.53966 C 639.9337 435.6835 645.16456 445.843 645.7121 456.4844 C 645.8174 459.9672 645.7953 463.4493 645.7751 466.93306 C 645.7757 468.2667 645.7773 469.6003 645.7798 470.9339 C 645.7836 474.5302 645.7735 478.1264 645.7605 481.7227 C 645.7491 485.4909 645.75 489.2591 645.7494 493.0273 C 645.74665 499.34487 645.7354 505.6624 645.7183 511.97995 C 645.69646 520.0989 645.6887 528.21774 645.68536 536.3367 C 645.68236 543.316 645.6729 550.29536 645.66245 557.2747 C 645.65935 559.52074 645.65714 561.7668 645.65505 564.0128 C 645.6514 567.53076 645.6437 571.04866 645.6328 574.5666 C 645.6294 575.86076 645.6273 577.15496 645.6265 578.44916 C 645.6252 580.2077 645.61924 581.9662 645.612 583.72474 C 645.6127 584.2434 645.61334 584.7621 645.614 585.29645 C 645.5922 588.8095 645.5922 588.8095 644.7511 589.6117 C 642.5835 589.937 640.4266 590.2181 638.24904 590.46944 C 637.22955 590.5881 637.22955 590.5881 636.1895 590.7092 C 580.2432 597.07986 580.2432 597.07986 556.4289 591.0516 C 556.3406 573.0271 556.2741 555.0026 556.23336 536.9779 C 556.2139 528.60794 556.18746 520.2381 556.1442 511.86816 C 556.10645 504.56927 556.0822 497.27047 556.0738 489.9715 C 556.0689 486.11003 556.05744 482.24883 556.02985 478.38746 C 556.00403 474.74544 555.99636 471.1038 556.002 467.4617 C 556.001 466.13223 555.9936 464.80277 555.979 463.4734 C 555.8377 449.9258 559.0133 438.9915 569.07334 428.87996 C 584.3733 415.05477 607.2151 412.1286 625.124 423.43524 Z" fill="#f26d6d"/>
      </g>
      <g id="Graphic_7">
        <path d="M 340.7189 334.2796 C 341.4173 334.28076 342.11568 334.28193 342.83522 334.28314 C 348.3068 334.37747 352.8977 335.23485 357.89267 337.4649 C 358.41815 337.66667 358.94362 337.86846 359.48502 338.07635 C 369.6877 342.347 376.38694 350.97896 381.2884 360.26826 C 383.2487 365.29533 383.7799 370.2232 383.7405 375.55782 C 383.7418 376.2086 383.7431 376.85935 383.74442 377.52983 C 383.7469 379.6929 383.73863 381.8558 383.73036 384.01887 C 383.72993 385.57638 383.73017 387.1339 383.73102 388.6914 C 383.73146 392.9074 383.7226 397.1233 383.71204 401.3393 C 383.7026 405.7498 383.7017 410.16033 383.69992 414.57085 C 383.69523 422.91735 383.68285 431.2638 383.6677 439.6103 C 383.6508 449.1148 383.6425 458.6193 383.63493 468.1238 C 383.61916 487.6702 383.5926 507.2166 383.55896 526.763 C 382.494 526.4291 381.42984 526.09294 380.36597 525.7559 C 379.77327 525.5689 379.18057 525.38197 378.5699 525.18935 C 375.69974 524.2185 372.96534 522.9877 370.20683 521.7575 C 364.42784 519.2281 358.61394 517.09823 352.60844 515.1139 C 351.63157 514.7544 350.6562 514.391 349.68324 514.0218 C 348.6471 513.65296 347.60882 513.2896 346.5693 512.9297 C 345.83462 512.6697 345.09993 512.40974 344.34298 512.1419 C 329.6965 507.3314 313.64518 504.7439 298.2563 503.4648 C 297.49934 500.43227 297.40275 497.5849 297.3954 494.4702 C 297.39316 493.9381 297.3909 493.406 297.3886 492.85775 C 297.38207 491.07835 297.3809 489.299 297.3798 487.5196 C 297.3763 486.2421 297.3725 484.9646 297.36843 483.6871 C 297.35853 480.21796 297.35366 476.74885 297.3503 473.2797 C 297.3481 471.10986 297.345 468.94 297.3416 466.77015 C 297.3313 459.97415 297.324 453.17815 297.32108 446.38214 C 297.3177 438.5507 297.30447 430.71934 297.28258 422.8879 C 297.26623 416.8264 297.25865 410.7649 297.25764 404.7033 C 297.25685 401.0871 297.25244 397.47096 297.2389 393.85476 C 297.2264 390.449 297.22486 387.04343 297.23146 383.63768 C 297.23204 382.3933 297.2288 381.14895 297.2213 379.9046 C 297.14417 366.30537 300.04287 356.2633 309.86276 346.24723 C 318.6411 338.2988 328.74847 334.2586 340.7189 334.2796 Z" fill="#f26d6d"/>
      </g>
      <g id="Graphic_8">
        <path d="M 767.3899 610.72734 C 768.3864 610.72734 769.38285 610.72734 770.4095 610.72734 C 770.4448 632.5852 770.4714 654.4431 770.4877 676.30105 C 770.4955 686.4503 770.5061 696.5996 770.5234 706.7488 C 770.5385 715.5961 770.5482 724.4434 770.5516 733.2907 C 770.5535 737.97415 770.5581 742.6576 770.5691 747.341 C 770.5794 751.7524 770.5825 756.1636 770.5803 760.5749 C 770.5807 762.1909 770.5837 763.8069 770.5895 765.4228 C 770.6519 783.7109 767.0927 798.9361 757.3051 812.2358 C 747.3704 823.9267 736.0493 828.7901 722.9531 827.828 C 714.7054 826.8467 707.5323 823.3874 700.9596 816.59 C 700.3553 815.9673 699.751 815.3447 699.1284 814.70315 C 690.0029 804.604 684.9158 791.0229 683.5971 775.4174 C 683.2171 766.5736 683.3245 757.7016 683.36745 748.8474 C 683.3818 745.395 683.38295 741.9426 683.3856 738.4902 C 683.3926 731.9751 683.41115 725.4601 683.434 718.9451 C 683.4594 711.5184 683.4718 704.0917 683.4831 696.665 C 683.5067 681.40844 683.5464 666.1521 683.5971 650.89565 C 685.5195 650.0909 687.4423 649.2875 689.3653 648.4849 C 689.905 648.2588 690.4448 648.0327 691.0009 647.79976 C 695.2672 646.0209 699.5593 644.4294 703.8848 642.92475 C 716.6274 638.39545 728.8704 632.5398 741.03445 625.77716 C 748.5873 621.5793 756.1426 617.4653 763.8602 613.82626 C 765.953 612.8995 765.953 612.8995 767.3899 610.72734 Z" fill="#2aa9a9"/>
      </g>
      <g id="Graphic_9">
        <path d="M 868.7413 375.06286 C 874.4173 379.07484 879.585 384.4175 882.5417 390.614 C 882.7976 391.14562 883.0535 391.67727 883.3171 392.22503 C 886.4101 399.7461 885.9993 407.38908 885.9623 415.3456 C 885.9643 416.89556 885.9673 418.4455 885.971 419.9955 C 885.9755 423.2315 885.9691 426.4673 885.9549 429.7033 C 885.9377 433.83054 885.9476 437.95725 885.9657 442.0845 C 885.9767 445.2814 885.9731 448.47815 885.9653 451.67506 C 885.9633 453.196 885.9657 454.7169 885.9728 456.2378 C 886.0198 469.17056 884.353 479.73696 874.7569 489.49494 C 869.4526 494.3887 863.5456 498.5616 857.6303 502.7367 C 856.8549 503.2859 856.8549 503.2859 856.0637 503.84623 C 847.7469 509.70476 839.1107 515.042 830.3927 520.32414 C 828.0845 521.73056 825.7873 523.1526 823.4921 524.5788 C 822.7304 525.051 821.9686 525.5232 821.1838 526.0097 C 819.7129 526.922 818.2435 527.8365 816.7757 528.7535 C 816.1166 529.1609 815.4575 529.56834 814.7785 529.9881 C 814.1963 530.3503 813.6141 530.71244 813.0143 531.08557 C 811.582 531.8595 811.582 531.8595 810.0722 531.8595 C 810.0369 515.38533 810.0103 498.9112 809.994 482.437 C 809.9862 474.78726 809.9756 467.13755 809.9583 459.48784 C 809.9432 452.8182 809.9335 446.14857 809.9301 439.4789 C 809.9282 435.94935 809.9236 432.41983 809.9126 428.8903 C 809.9023 425.5635 809.8992 422.2368 809.9014 418.91 C 809.901 417.6935 809.898 416.47703 809.8922 415.26056 C 809.8361 402.9329 811.1081 391.51483 819.8858 381.87714 C 820.509 381.1493 820.509 381.1493 821.1449 380.4068 C 833.4921 367.12716 853.5863 366.2425 868.7413 375.06286 Z" fill="#2aa9a9"/>
      </g>
      <g id="Graphic_10">
        <path d="M 252.42366 539.36826 C 253.15875 539.377 253.89384 539.3857 254.6512 539.39465 C 255.4817 539.41144 255.4817 539.41144 256.32896 539.4286 C 256.3998 554.48745 256.4529 569.5463 256.4854 584.6054 C 256.50092 591.5992 256.52202 598.59276 256.55676 605.5864 C 256.5903 612.3451 256.60766 619.1035 256.61545 625.8623 C 256.621 628.4313 256.63183 631.0003 256.64822 633.5692 C 256.7826 655.5191 255.77376 674.0231 243.86147 690.7737 C 234.59107 702.1363 223.06055 706.6911 210.66692 706.3703 C 199.6195 705.3568 190.27794 698.8296 182.73597 688.13765 C 174.81928 675.1987 172.21618 661.8243 172.04955 645.2509 C 172.03485 643.98384 172.02015 642.7168 172.005 641.4113 C 171.98046 638.7485 171.96166 636.08665 171.95058 633.42376 C 171.93724 630.7202 171.90038 628.02004 171.8422 625.3175 C 171.29353 599.30165 171.29353 599.30165 176.15426 591.5846 C 178.15115 588.8858 178.15115 588.8858 180.085 586.62635 C 181.13007 585.1077 182.16937 583.5819 183.19893 582.04465 C 199.0418 561.8567 218.99568 549.3331 240.00445 541.8136 C 240.68964 541.5647 241.37482 541.31584 242.08077 541.0594 C 245.5857 539.8919 248.804 539.31236 252.42366 539.36826 Z" fill="#2aa9a9"/>
      </g>
      <g id="Graphic_11">
        <path d="M 428.44403 608.7189 C 434.1685 610.8187 434.1685 610.8187 436.51193 613.0496 C 439.72627 615.878 443.12613 617.67326 446.6941 619.573 C 448.4505 620.55866 450.0287 621.5998 451.6569 622.90336 C 453.8363 624.57595 455.9253 625.7157 458.28875 626.82605 C 460.22517 627.8385 462.0872 629.00724 463.9602 630.21034 C 470.0493 634.1165 476.2246 637.2546 482.63177 640.1078 C 484.3462 640.8715 486.0571 641.64824 487.7678 642.4266 C 496.5499 646.4 505.3275 650.1593 514.44554 652.5157 C 514.9624 652.6512 515.4793 652.7867 516.0118 652.92626 C 517.2695 653.2556 518.5276 653.5822 519.7858 653.9083 C 519.83864 661.4251 519.8787 668.9419 519.90314 676.459 C 519.9149 679.9507 519.9308 683.44225 519.95665 686.9339 C 519.9863 690.9623 519.997 694.99055 520.00696 699.0192 C 520.01865 700.253 520.03034 701.48676 520.0424 702.7579 C 520.04505 721.2687 515.37734 736.441 506.00905 750.0612 C 502.4982 754.468 498.40595 757.4759 494.1195 760.3543 C 493.37023 760.8682 492.62095 761.3821 491.84895 761.9116 C 481.7256 767.7847 467.41065 768.0798 457.06206 762.8178 C 444.9921 754.8004 436.034 744.0721 430.85025 727.0899 C 428.85346 718.9243 428.2233 710.9809 428.27263 702.4295 C 428.2724 701.4094 428.2722 700.38926 428.27197 699.3382 C 428.273 696.0021 428.2847 692.6662 428.2966 689.33014 C 428.2994 687.003 428.30156 684.6758 428.30307 682.34865 C 428.3088 676.2503 428.3236 670.152 428.34036 664.0537 C 428.35586 657.8201 428.3627 651.5865 428.3703 645.3529 C 428.38646 633.1415 428.4122 620.9302 428.44403 608.7189 Z" fill="#2aa9a9"/>
      </g>
      <g id="Graphic_12">
        <path d="M 240.88462 429.92974 C 249.91675 437.253 254.5214 446.4393 255.98243 457.5964 C 256.0441 459.2142 256.07146 460.8335 256.06813 462.4524 C 256.06805 463.85115 256.06805 463.85115 256.06796 465.27817 C 256.0641 466.28114 256.06017 467.2841 256.05615 468.28707 C 256.05474 469.3245 256.05367 470.3619 256.05292 471.3993 C 256.05005 474.1151 256.04265 476.8309 256.03427 479.5467 C 256.0265 482.3238 256.0231 485.10097 256.0193 487.8781 C 256.01123 493.3164 255.99836 498.7546 255.98243 504.19285 C 255.4191 504.28835 254.8558 504.38385 254.2754 504.48225 C 239.60848 506.9037 239.60848 506.9037 225.26782 510.65447 C 224.45698 510.90535 223.64615 511.1562 222.81074 511.4147 C 206.11638 516.6868 191.11489 524.8125 177.4738 535.49984 C 176.42542 536.26685 175.37388 537.0299 174.3197 537.78946 C 173.77862 538.1797 173.23754 538.5699 172.68006 538.97196 C 172.26909 539.26774 171.8581 539.5635 171.43468 539.86826 C 171.3639 528.92514 171.31077 517.98204 171.27823 507.03876 C 171.26271 501.9567 171.24159 496.8747 171.20689 491.79273 C 171.17338 486.88315 171.156 481.9737 171.1482 477.064 C 171.14264 475.1962 171.1318 473.32837 171.11542 471.4606 C 170.9844 455.8826 172.33343 443.43866 183.94935 431.59634 C 200.38246 416.61624 223.6085 416.7111 240.88462 429.92974 Z" fill="#2aa9a9"/>
      </g>
      <g id="Graphic_13">
        <path d="M 885.9078 516.3318 C 885.9255 530.2297 885.9387 544.1276 885.9469 558.0255 C 885.9508 564.48 885.9561 570.93444 885.9647 577.3889 C 885.973 583.62665 885.9775 589.8644 885.9794 596.1021 C 885.9808 598.4729 885.9835 600.8437 885.9876 603.2145 C 886.0703 653.0463 886.0703 653.0463 874.5549 669.1675 C 864.9277 680.9538 855.2076 684.1551 842.4396 683.5089 C 837.4713 683.0582 833.5246 681.5378 829.291 678.0093 C 828.2167 677.13355 828.2167 677.13355 827.1207 676.2401 C 819.0107 669.01365 814.3027 660.0962 811.1736 647.883 C 810.9162 646.9307 810.6588 645.97836 810.3936 644.99716 C 809.2105 639.3973 809.3577 633.5973 809.3041 627.8224 C 809.2919 626.5738 809.2797 625.3251 809.2671 624.03864 C 809.2463 621.407 809.2301 618.7753 809.2182 616.1436 C 809.2047 613.4488 809.1731 610.756 809.1253 608.0619 C 809.0611 604.16666 809.0365 600.2742 809.021 596.37815 C 808.99455 595.17406 808.9681 593.97 808.9409 592.7294 C 808.9728 584.6102 808.9728 584.6102 810.9109 581.81534 C 812.47 580.4961 813.9952 579.5232 815.7029 578.5927 C 816.3933 578.064 817.0837 577.53525 817.7949 576.9905 C 818.427 576.52636 819.0591 576.0622 819.7104 575.584 C 829.5747 568.2367 839.0994 560.40976 848.4935 552.04394 C 849.0196 551.5761 849.5458 551.1082 850.0879 550.62616 C 858.2573 543.3468 866.306 535.8779 874.0182 527.75466 C 874.4647 527.2876 874.9111 526.8205 875.371 526.3393 C 877.7393 523.84956 880.0567 521.30967 882.322 518.654 C 884.398 516.3318 884.398 516.3318 885.9078 516.3318 Z" fill="#2aa9a9"/>
      </g>
    </g>
  </g>
</svg>
